<?xml version="1.0" standalone="no"?>
<!DOCTYPE svg PUBLIC "-//W3C//DTD SVG 20010904//EN"
 "http://www.w3.org/TR/2001/REC-SVG-20010904/DTD/svg10.dtd">
<svg version="1.0" xmlns="http://www.w3.org/2000/svg"
 width="300.000000pt" height="300.000000pt" viewBox="0 0 300.000000 300.000000"
 preserveAspectRatio="xMidYMid meet">
<metadata>
Created by potrace 1.14, written by Peter Selinger 2001-2017
</metadata>
<g transform="translate(0.000000,300.000000) scale(0.100000,-0.100000)"
fill="#000000" stroke="none">
<path d="M290 1796 c0 -954 3 -1205 13 -1208 6 -2 547 -3 1202 -3 l1190 1 3
1050 2 1050 -155 0 c-85 -1 -155 1 -156 4 -1 3 -2 73 -3 155 l-1 150 -1047 3
-1048 2 0 -1204z m712 -229 c17 -26 8 -66 -18 -83 -53 -36 -115 23 -84 80 7
14 20 27 29 29 21 4 63 -11 73 -26z m1338 -325 c38 -20 85 -93 96 -150 4 -18
8 -31 10 -29 2 2 10 37 19 78 8 41 17 83 20 94 3 17 12 20 52 19 44 -1 48 -3
47 -25 -1 -27 -13 -96 -20 -121 -3 -9 -7 -25 -9 -35 -2 -10 -14 -49 -26 -88
-34 -111 -35 -130 -6 -174 14 -21 35 -41 46 -44 23 -6 51 15 51 38 0 8 6 12
14 9 11 -4 13 -17 9 -52 -8 -74 -50 -104 -105 -76 -20 10 -32 30 -49 81 -20
61 -23 65 -31 43 -17 -47 -97 -115 -148 -127 -174 -42 -314 87 -313 288 2 203
188 350 343 271z m-1616 -26 c34 -23 66 -56 67 -69 0 -7 2 -20 4 -29 5 -25
-29 -50 -62 -46 -24 3 -31 11 -50 58 -25 63 -45 81 -87 78 -55 -3 -105 -38
-134 -93 -33 -65 -31 -178 5 -248 36 -71 77 -98 153 -103 56 -3 107 22 148 73
40 50 52 36 18 -21 -55 -94 -118 -137 -206 -141 -90 -4 -171 52 -214 145 -29
66 -28 189 3 254 45 92 115 149 202 164 50 9 123 -2 153 -22z m279 -235 c1
-155 6 -254 12 -260 9 -9 37 -17 68 -20 4 -1 7 -5 7 -9 0 -11 -276 -10 -286 1
-4 4 2 8 14 8 37 2 41 4 62 21 12 11 20 31 21 50 0 18 0 108 1 201 0 190 -4
203 -61 193 -22 -3 -31 -2 -25 4 11 11 177 69 182 64 2 -1 5 -115 5 -253z
m297 207 l0 -41 33 27 c53 43 98 60 160 60 54 0 61 -3 88 -35 16 -19 29 -40
29 -46 0 -7 5 -13 10 -13 6 0 10 4 10 8 0 13 84 68 121 80 81 25 147 2 178
-62 19 -37 21 -63 22 -231 2 -207 5 -218 60 -230 61 -14 24 -21 -106 -21 -130
0 -167 7 -106 21 52 11 55 23 56 204 1 91 -2 179 -7 196 -17 63 -77 86 -144
55 -74 -33 -76 -37 -75 -234 1 -195 5 -211 59 -221 19 -3 31 -9 27 -13 -9 -9
-275 -10 -269 -1 2 4 19 13 38 19 21 7 36 19 40 33 3 12 6 96 6 185 0 182 -10
223 -58 240 -46 16 -98 2 -138 -36 l-30 -28 2 -186 c1 -102 4 -190 8 -196 4
-6 22 -14 41 -18 67 -12 25 -21 -99 -20 -125 1 -163 8 -107 21 16 3 35 13 42
21 17 21 19 390 2 413 -11 16 -15 17 -55 20 -12 0 -18 4 -14 9 11 12 160 69
169 65 4 -2 7 -22 7 -45z"/>
<path d="M2205 1212 c-58 -37 -90 -137 -89 -277 1 -88 20 -143 65 -188 38 -38
41 -39 91 -35 45 5 57 11 85 43 86 100 80 360 -10 444 -35 32 -102 38 -142 13z"/>
<path d="M2499 2988 c-3 -50 -1 -180 4 -184 5 -5 140 -8 185 -5 9 1 12 28 12
101 l0 100 -100 0 c-73 0 -100 -3 -101 -12z"/>
<path d="M313 452 c-22 -3 -23 -8 -23 -88 0 -77 2 -84 20 -84 16 0 20 7 20 35
0 19 3 35 8 35 16 0 31 -17 37 -43 5 -18 14 -27 26 -27 16 0 18 5 13 28 -4 15
-11 33 -17 40 -7 9 -7 16 -1 20 20 14 23 41 5 63 -17 21 -46 28 -88 21z m53
-36 c19 -15 19 -15 -1 -29 -25 -19 -35 -13 -35 19 0 28 8 30 36 10z"/>
<path d="M621 440 c-4 -8 -7 -46 -6 -85 l1 -70 57 -2 c44 -1 57 1 57 13 0 9
-11 14 -34 14 -33 0 -47 13 -39 37 2 6 16 9 34 6 26 -4 30 -1 27 14 -2 11 -12
18 -26 18 -13 0 -28 8 -33 18 -9 15 -5 17 23 18 18 1 36 1 39 1 4 -1 5 6 2 16
-6 23 -91 25 -102 2z"/>
<path d="M945 436 c-31 -31 -24 -58 21 -79 47 -23 46 -51 -1 -45 -23 3 -36 -1
-40 -9 -12 -32 86 -33 107 -1 20 32 7 58 -40 82 -26 13 -31 20 -23 30 6 7 22
11 36 8 18 -3 25 0 25 12 0 9 -3 16 -7 17 -5 0 -18 2 -31 5 -15 3 -31 -4 -47
-20z"/>
<path d="M1243 446 c-5 -7 -6 -38 -4 -136 1 -30 2 -30 56 -30 42 0 55 3 55 15
0 11 -11 15 -39 15 -26 0 -39 4 -37 13 3 24 16 34 41 32 18 -3 25 1 25 15 0
13 -7 17 -29 15 -22 -2 -31 3 -34 16 -4 14 1 19 16 20 40 2 47 4 47 12 0 4 0
11 0 15 0 11 -91 9 -97 -2z"/>
<path d="M1604 452 c-6 -4 -22 -44 -36 -89 -23 -75 -24 -83 -8 -83 9 0 22 11
27 23 13 28 56 30 61 4 3 -15 39 -34 48 -25 7 8 -45 161 -58 170 -16 10 -20
10 -34 0z m30 -74 c5 -21 3 -28 -8 -28 -21 0 -25 11 -15 39 11 28 14 26 23
-11z"/>
<path d="M1909 449 c-7 -4 -11 -34 -11 -70 0 -96 0 -99 20 -99 14 0 18 8 17
32 0 46 29 50 41 6 11 -38 44 -52 44 -18 0 12 -5 31 -11 42 -8 14 -8 23 0 31
16 16 13 52 -4 67 -17 14 -78 20 -96 9z m61 -61 c-21 -17 -24 -18 -33 -3 -14
25 10 47 36 33 l21 -11 -24 -19z"/>
<path d="M2280 449 c-78 -27 -71 -146 9 -167 23 -5 45 -6 55 0 25 14 19 28
-12 28 -51 0 -73 30 -59 83 5 20 14 27 32 28 14 1 30 2 37 3 16 2 22 26 6 27
-7 0 -20 2 -28 3 -8 2 -26 -1 -40 -5z"/>
<path d="M2562 440 c-4 -10 -7 -49 -6 -87 0 -60 2 -68 20 -68 14 0 19 7 19 30
1 26 4 30 33 33 31 3 32 2 32 -32 0 -29 4 -36 20 -36 19 0 20 7 20 89 0 79 -2
89 -17 87 -12 -2 -20 -14 -23 -37 -5 -33 -11 -36 -59 -30 -5 1 -7 14 -5 30 6
35 -22 52 -34 21z"/>
<path d="M290 88 c0 -81 2 -88 20 -88 16 0 20 7 20 35 0 35 8 41 48 36 6 -1
12 7 12 18 0 16 -6 20 -27 18 -22 -2 -28 2 -28 18 0 15 7 19 29 20 16 0 31 6
34 13 4 14 3 14 -60 17 l-48 2 0 -89z"/>
<path d="M546 158 c-32 -29 -40 -72 -20 -114 20 -42 66 -54 112 -30 55 28 53
135 -3 156 -40 15 -62 12 -89 -12z m71 -16 c21 -13 26 -73 7 -93 -9 -11 -23
-19 -30 -19 -22 0 -44 41 -37 69 11 46 32 61 60 43z"/>
<path d="M804 169 c-19 -32 -1 -144 26 -159 31 -16 65 -12 87 13 28 30 29 149
1 153 -16 2 -18 -6 -18 -61 0 -41 -5 -66 -14 -74 -15 -13 -46 -5 -47 13 0 6
-1 35 -2 65 -2 53 -17 75 -33 50z"/>
<path d="M1064 168 c-7 -10 -8 -38 -5 -135 1 -22 6 -33 16 -33 15 0 19 24 16
95 -2 33 -2 34 44 -49 13 -22 31 -41 43 -42 19 -3 20 2 21 85 1 80 -1 89 -16
87 -15 -2 -18 -13 -17 -54 0 -29 0 -52 -2 -52 -1 0 -16 25 -33 55 -30 53 -52
67 -67 43z"/>
<path d="M1318 131 c-1 -25 -2 -66 0 -90 l3 -43 50 4 c80 8 119 64 93 133 -10
24 -56 44 -101 43 l-41 0 -4 -47z m95 5 c25 -19 22 -71 -5 -90 -12 -9 -29 -16
-38 -16 -14 0 -16 12 -11 103 1 20 29 22 54 3z"/>
<path d="M1620 109 c-30 -97 -31 -107 -12 -105 9 2 21 12 27 24 13 29 49 28
62 -1 12 -27 43 -32 43 -8 -1 9 -12 48 -25 86 -21 61 -27 70 -49 70 -22 1 -27
-7 -46 -66z m58 -26 c-6 -27 -26 3 -21 32 6 29 6 29 15 5 5 -13 7 -30 6 -37z"/>
<path d="M1864 168 c-9 -15 7 -29 27 -23 17 6 19 1 20 -57 1 -35 1 -68 0 -73
0 -6 8 -11 19 -12 18 -2 20 4 20 68 0 38 4 70 10 70 6 1 16 2 23 3 6 0 12 8
12 16 0 12 -14 15 -63 16 -35 0 -65 -3 -68 -8z"/>
<path d="M2118 166 c-2 -6 -4 -44 -3 -85 0 -62 3 -75 17 -77 9 -1 18 3 20 9 3
10 2 139 -1 158 -2 10 -30 6 -33 -5z"/>
<path d="M2308 160 c-81 -63 -12 -189 81 -150 35 14 50 44 45 93 -4 45 -23 66
-66 74 -24 3 -40 -1 -60 -17z m76 -32 c8 -13 13 -32 11 -43 -2 -11 -4 -23 -4
-27 -1 -4 -10 -12 -22 -18 -45 -25 -76 51 -39 95 18 21 37 19 54 -7z"/>
<path d="M2559 156 c-6 -105 -2 -151 14 -154 13 -3 17 8 19 58 l3 62 31 -58
c21 -41 37 -60 53 -62 21 -3 22 -1 19 85 -2 70 -6 88 -18 88 -11 0 -15 -12
-15 -42 -1 -23 -3 -45 -6 -47 -3 -3 -17 16 -31 42 -28 52 -67 68 -69 28z"/>
</g>
</svg>
